<svg aria-label="Museum of Crypto Art" class="w-full h-auto" width="112" height="44" viewBox="0 0 112 44" fill="none" xmlns="http://www.w3.org/2000/svg">
  <path d="M37.3885 31.8185C36.9346 31.8185 36.5148 31.8185 36.0723 31.8185C36.0723 32.7149 36.0723 33.5886 36.0723 34.4737C36.5148 34.4737 36.946 34.4737 37.3885 34.4737C37.3885 33.5546 37.3885 32.6809 37.3885 31.8185Z" fill="currentColor"></path>
  <path d="M36.0727 34.4741C36.0727 34.4741 36.0604 34.4618 36.0727 34.4741C36.0604 34.4618 36.0604 34.4741 36.0727 34.4741Z" fill="currentColor"></path>
  <path d="M34.7223 37.1409C34.7223 37.1286 34.7223 37.1286 34.7223 37.1409C34.71 37.1286 34.7223 37.1409 34.7223 37.1409Z" fill="currentColor"></path>
  <path d="M34.7217 37.1288C35.1642 37.1288 35.6181 37.1288 36.0606 37.1288C36.0606 36.2211 36.0606 35.3473 36.0606 34.4623C35.6181 34.4623 35.1869 34.4623 34.7217 34.4623C34.7217 35.3814 34.7217 36.2551 34.7217 37.1288Z" fill="currentColor"></path>
  <path d="M32.0666 31.7844C32.5092 31.7844 32.9404 31.7844 33.3942 31.7844C33.3942 29.0952 33.3942 26.44 33.3942 23.7621C33.8481 23.7621 34.2793 23.7621 34.7332 23.7621C34.7332 21.0729 34.7332 18.4063 34.7332 15.7284C35.1871 15.7284 35.6069 15.7284 36.0381 15.7284C36.0381 11.2577 36.0381 6.82101 36.0381 2.33895C35.5955 2.33895 35.1644 2.33895 34.7105 2.33895C34.7105 1.88506 34.7105 1.46523 34.7105 1.03404C33.3715 1.03404 32.0439 1.03404 30.6936 1.03404C30.6936 1.48792 30.6936 1.91911 30.6936 2.36164C30.2398 2.36164 29.8199 2.36164 29.366 2.36164C29.366 2.81552 29.366 3.24671 29.366 3.70059C28.9008 3.70059 28.4696 3.70059 28.0271 3.70059C28.0271 4.597 28.0271 5.47072 28.0271 6.36713C27.5732 6.36713 27.142 6.36713 26.6995 6.36713C26.6995 6.82101 26.6995 7.24085 26.6995 7.69473C26.2456 7.69473 25.8144 7.69473 25.3606 7.69473C25.3606 8.60249 25.3606 9.47622 25.3606 10.3726C24.9067 10.3726 24.4868 10.3726 24.033 10.3726C24.033 11.269 24.033 12.1428 24.033 13.0392C23.5677 13.0392 23.1365 13.0392 22.7054 13.0392C22.7054 13.0392 22.7054 13.0392 22.7054 13.0278C22.7054 13.0278 22.7054 13.0278 22.694 13.0278C22.694 9.46487 22.694 5.90191 22.694 2.31626C22.2288 2.31626 21.7976 2.31626 21.3437 2.31626C21.3437 1.86238 21.3437 1.44254 21.3437 1.01135C20.0048 1.01135 18.6772 1.01135 17.3269 1.01135C17.3269 1.46523 17.3269 1.89641 17.3269 2.33895C16.873 2.33895 16.4532 2.33895 15.9993 2.33895C15.9993 2.79283 15.9993 3.22401 15.9993 3.66655C15.5454 3.66655 15.1256 3.66655 14.6717 3.66655C14.6717 4.56296 14.6717 5.43668 14.6717 6.34444C14.2064 6.34444 13.7753 6.34444 13.3327 6.34444C13.3327 6.79832 13.3327 7.21816 13.3327 7.67204C12.8788 7.67204 12.4477 7.67204 11.9938 7.67204C11.9938 8.5798 11.9938 9.45352 11.9938 10.3499C11.5399 10.3499 11.1201 10.3499 10.6662 10.3499C10.6662 11.2463 10.6662 12.1201 10.6662 13.0278C10.201 13.0278 9.76977 13.0278 9.32724 13.0278C9.32724 13.9242 9.32724 14.798 9.32724 15.6717C8.87336 15.6717 8.44217 15.6717 8.02233 15.6717C8.02233 14.3327 8.02233 13.0051 8.02233 11.6662C8.46486 11.6662 8.89605 11.6662 9.34993 11.6662C9.34993 8.98829 9.34993 6.32174 9.34993 3.64385C9.80381 3.64385 10.2236 3.64385 10.6662 3.64385C10.6662 2.74744 10.6662 1.87372 10.6662 1C9.76977 1 8.89605 1 7.99964 1C7.99964 1.44253 7.99964 1.87372 7.99964 2.3276C6.66069 2.3276 5.33309 2.3276 3.9828 2.3276C3.9828 2.79283 3.9828 3.22401 3.9828 3.66655C3.08638 3.66655 2.21267 3.66655 1.33895 3.66655C1.33895 4.12043 1.33895 4.55161 1.33895 5.00549C2.23536 5.00549 3.10908 5.00549 4.00549 5.00549C4.00549 5.45937 4.00549 5.87921 4.00549 6.33309C4.45937 6.33309 4.89056 6.33309 5.3104 6.33309C5.3104 7.24085 5.3104 8.11458 5.3104 9.01099C4.86786 9.01099 4.43668 9.01099 3.9828 9.01099C3.9828 11.6889 3.9828 14.3554 3.9828 17.0333C3.52892 17.0333 3.10908 17.0333 2.6552 17.0333C2.6552 19.7112 2.6552 22.3778 2.6552 25.067C2.18997 25.067 1.75879 25.067 1.31625 25.067C1.31625 27.7562 1.31625 30.4114 1.31625 33.0893C0.862372 33.0893 0.431186 33.0893 0 33.0893C0 35.7786 0 38.4451 0 41.1003C1.33895 41.1003 2.6552 41.1003 3.99414 41.1003C3.99414 39.3188 3.99414 37.5487 3.99414 35.7445C4.45937 35.7445 4.89056 35.7445 5.33309 35.7445C5.33309 33.5092 5.33309 31.2965 5.33309 29.0611C5.78697 29.0611 6.21816 29.0611 6.67204 29.0611C6.67204 27.257 6.67204 25.4982 6.67204 23.7054C7.12592 23.7054 7.54576 23.7054 7.99964 23.7054C7.99964 22.3664 7.99964 21.0388 7.99964 19.6885C8.46486 19.6885 8.89605 19.6885 9.33858 19.6885C9.33858 18.7921 9.33858 17.9184 9.33858 17.022C9.79246 17.022 10.2236 17.022 10.6775 17.022C10.6775 16.1142 10.6775 15.2405 10.6775 14.3441C11.1314 14.3441 11.5512 14.3441 12.0051 14.3441C12.0051 13.4477 12.0051 12.5739 12.0051 11.6775C12.459 11.6775 12.8788 11.6775 13.3327 11.6775C13.3327 10.7811 13.3327 9.9074 13.3327 8.99964C13.798 8.99964 14.2291 8.99964 14.6717 8.99964C14.6717 8.54576 14.6717 8.12592 14.6717 7.67204C15.1256 7.67204 15.5567 7.67204 16.0106 7.67204C16.0106 7.20681 16.0106 6.77563 16.0106 6.35579C16.907 6.35579 17.7808 6.35579 18.6545 6.35579C18.6545 8.59115 18.6545 10.8038 18.6545 13.0505C18.2006 13.0505 17.7694 13.0505 17.3269 13.0505C17.3269 15.7398 17.3269 18.395 17.3269 21.0729C16.873 21.0729 16.4418 21.0729 15.9879 21.0729C15.9879 23.7621 15.9879 26.4286 15.9879 29.1065C15.534 29.1065 15.1142 29.1065 14.6603 29.1065C14.6603 31.7844 14.6603 34.451 14.6603 37.1402C14.1951 37.1402 13.7639 37.1402 13.3441 37.1402C13.3441 38.4905 13.3441 39.8068 13.3441 41.123C14.683 41.123 16.0106 41.123 17.3496 41.123C17.3496 40.2379 17.3496 39.3642 17.3496 38.4678C17.8034 38.4678 18.2346 38.4678 18.6885 38.4678C18.6885 35.7786 18.6885 33.112 18.6885 30.4341C19.1424 30.4341 19.5622 30.4341 20.0161 30.4341C20.0161 28.6413 20.0161 26.8712 20.0161 25.0783C20.4813 25.0783 20.9125 25.0783 21.3551 25.0783C21.3551 23.2855 21.3551 21.5267 21.3551 19.7339C21.8089 19.7339 22.2401 19.7339 22.6827 19.7339C22.6827 18.8261 22.6827 17.9411 22.6827 17.0674C22.6827 17.0674 22.6827 17.0674 22.694 17.0674C22.694 17.0674 22.694 17.0674 22.694 17.056C23.1365 17.056 23.5677 17.056 24.0443 17.056C24.0443 16.1483 24.0443 15.2745 24.0443 14.3781C24.4982 14.3781 24.918 14.3781 25.3719 14.3781C25.3719 13.4817 25.3719 12.608 25.3719 11.7002C25.8371 11.7002 26.2683 11.7002 26.7108 11.7002C26.7108 10.8038 26.7108 9.93009 26.7108 9.03368C27.1647 9.03368 27.5959 9.03368 28.0384 9.03368C28.0384 8.5798 28.0384 8.15996 28.0384 7.70608C28.4923 7.70608 28.9235 7.70608 29.3774 7.70608C29.3774 7.24086 29.3774 6.80967 29.3774 6.38983C30.2738 6.38983 31.1475 6.38983 32.0212 6.38983C32.0212 8.61384 32.0212 10.8379 32.0212 13.0732C31.5787 13.0732 31.1475 13.0732 30.6936 13.0732C30.6936 15.7625 30.6936 18.4063 30.6936 21.0955C30.2398 21.0955 29.8086 21.0955 29.3547 21.0955C29.3547 24.2273 29.3547 27.3364 29.3547 30.4682C28.9008 30.4682 28.481 30.4682 28.0498 30.4682C28.0498 34.0425 28.0498 37.5941 28.0498 41.1797C28.4923 41.1797 28.9235 41.1797 29.3774 41.1797C29.3774 41.6336 29.3774 42.0535 29.3774 42.4847C30.2738 42.4847 31.1475 42.4847 32.0553 42.4847C32.0553 42.0308 32.0553 41.6109 32.0553 41.1571C32.5092 41.1571 32.929 41.1571 33.3829 41.1571C33.3829 40.7032 33.3829 40.272 33.3829 39.8181C33.8481 39.8181 34.2793 39.8181 34.6991 39.8181C34.6991 38.9103 34.6991 38.0253 34.6991 37.1516C33.8141 37.1516 32.929 37.1516 32.0553 37.1516C32.0666 35.336 32.0666 33.5772 32.0666 31.7844Z" fill="currentColor"></path>
  <path d="M34.7104 37.1406C34.7227 37.1406 34.7227 37.1406 34.7104 37.1406C34.7227 37.1406 34.7104 37.1283 34.7104 37.1406Z" fill="currentColor"></path>
  <path d="M84.5429 4.98329C84.5429 4.08688 84.5429 3.21316 84.5429 2.31674C83.6465 2.31674 82.7728 2.31674 81.8764 2.31674C81.8764 1.86286 81.8764 1.44302 81.8764 1.00049C80.0836 1.00049 78.3134 1.00049 76.5206 1.00049C76.5206 1.44302 76.5206 1.87421 76.5206 2.32809C75.6242 2.32809 74.7505 2.32809 73.8541 2.32809C73.8541 2.78197 73.8541 3.21315 73.8541 3.66703C73.3888 3.66703 72.9576 3.66703 72.5151 3.66703C72.5151 4.12091 72.5151 4.54075 72.5151 4.99464C72.0612 4.99464 71.63 4.99464 71.1762 4.99464C71.1762 5.45986 71.1762 5.89105 71.1762 6.33358C70.7223 6.33358 70.3024 6.33358 69.8486 6.33358C69.8486 7.22999 69.8486 8.10371 69.8486 9.00013C69.3947 9.00013 68.9748 9.00013 68.521 9.00013C68.521 9.45401 68.521 9.8852 68.521 10.3391C68.0557 10.3391 67.6246 10.3391 67.182 10.3391C67.182 11.2355 67.182 12.1092 67.182 13.0056C66.7281 13.0056 66.2969 13.0056 65.8431 13.0056C65.8431 14.3559 65.8431 15.6835 65.8431 17.0225C65.3892 17.0225 64.9694 17.0225 64.5155 17.0225C64.5155 18.8153 64.5155 20.5854 64.5155 22.3782C64.0502 22.3782 63.6191 22.3782 63.1992 22.3782C63.1992 25.9526 63.1992 29.5042 63.1992 33.0785C63.6418 33.0785 64.0729 33.0785 64.5268 33.0785C64.5268 34.4288 64.5268 35.745 64.5268 37.084C64.9807 37.084 65.4119 37.084 65.8658 37.084C65.8658 37.9917 65.8658 38.8654 65.8658 39.7619C66.3196 39.7619 66.7395 39.7619 67.1934 39.7619C67.1934 40.2157 67.1934 40.6469 67.1934 41.1008C68.1011 41.1008 68.9748 41.1008 69.8713 41.1008C69.8713 41.5547 69.8713 41.9745 69.8713 42.4057C71.2102 42.4057 72.5378 42.4057 73.8881 42.4057C73.8881 41.9518 73.8881 41.5206 73.8881 41.0781C74.7845 41.0781 75.6582 41.0781 76.5546 41.0781C76.5546 40.6242 76.5546 40.193 76.5546 39.7505C77.0085 39.7505 77.4284 39.7505 77.8822 39.7505C77.8822 39.2966 77.8822 38.8654 77.8822 38.4116C78.3475 38.4116 78.7787 38.4116 79.2212 38.4116C79.2212 37.9577 79.2212 37.5378 79.2212 37.084C79.6751 37.084 80.1063 37.084 80.5488 37.084C80.5488 36.1762 80.5488 35.2911 80.5488 34.4174C80.1063 34.4174 79.6751 34.4174 79.1985 34.4174C79.1985 34.8826 79.1985 35.3138 79.1985 35.7677C78.7446 35.7677 78.3248 35.7677 77.8709 35.7677C77.8709 36.2216 77.8709 36.6528 77.8709 37.0953C77.417 37.0953 76.9972 37.0953 76.5433 37.0953C76.5433 37.5492 76.5433 37.9804 76.5433 38.4116C74.7391 38.4116 72.9803 38.4116 71.1875 38.4116C71.1875 37.969 71.1875 37.5378 71.1875 37.084C70.7336 37.084 70.3024 37.084 69.8486 37.084C69.8486 36.1762 69.8486 35.3025 69.8486 34.4061C69.3947 34.4061 68.9748 34.4061 68.5437 34.4061C68.5437 29.4928 68.5437 24.6023 68.5437 19.6777C68.9975 19.6777 69.4287 19.6777 69.8713 19.6777C69.8713 17.8848 69.8713 16.126 69.8713 14.3332C70.3251 14.3332 70.7563 14.3332 71.1989 14.3332C71.1989 12.9829 71.1989 11.6667 71.1989 10.3277C71.6527 10.3277 72.0839 10.3277 72.5378 10.3277C72.5378 9.41997 72.5378 8.54625 72.5378 7.64984C72.9917 7.64984 73.4115 7.64984 73.8654 7.64984C73.8654 7.19596 73.8654 6.76477 73.8654 6.31089C74.3306 6.31089 74.7618 6.31089 75.2043 6.31089C75.2043 5.85701 75.2043 5.43717 75.2043 4.98329C75.6582 4.98329 76.0894 4.98329 76.5433 4.98329C76.5433 4.51806 76.5433 4.08687 76.5433 3.66703C78.3361 3.66703 80.0949 3.66703 81.865 3.66703C81.865 4.56345 81.865 5.43717 81.865 6.33358C81.4225 6.33358 81.0027 6.33358 80.5601 6.33358C80.5601 8.12641 80.5601 9.89654 80.5601 11.6894C81.0027 11.6894 81.4339 11.6894 81.8877 11.6894C81.8877 12.1432 81.8877 12.5631 81.8877 12.9943C82.7841 12.9943 83.6579 12.9943 84.5656 12.9943C84.5656 12.5404 84.5656 12.1092 84.5656 11.6667C85.0195 11.6667 85.4393 11.6667 85.8705 11.6667C85.8705 9.43131 85.8705 7.21865 85.8705 4.97194C85.428 4.98329 84.9968 4.98329 84.5429 4.98329Z" fill="currentColor"></path>
  <path d="M81.8651 31.7844C81.4112 31.7844 80.9914 31.7844 80.5488 31.7844C80.5488 32.6808 80.5488 33.5546 80.5488 34.4396C80.9914 34.4396 81.4225 34.4396 81.8651 34.4396C81.8651 33.5319 81.8651 32.6468 81.8651 31.7844Z" fill="currentColor"></path>
  <path d="M97.8982 35.7665C97.8982 36.6516 97.8982 37.5253 97.8982 38.4444C97.4557 38.4444 97.0245 38.4444 96.5706 38.4444C96.5706 38.8983 96.5706 39.3181 96.5706 39.772C96.1167 39.772 95.6855 39.772 95.2316 39.772C95.2316 40.2372 95.2316 40.6684 95.2316 41.1109C94.3352 41.1109 93.4615 41.1109 92.5651 41.1109C92.5651 41.5648 92.5651 41.996 92.5651 42.4385C91.6687 42.4385 90.795 42.4385 89.8986 42.4385C89.8986 42.0187 89.8986 41.5875 89.8986 41.1223C89.4333 41.1223 89.0021 41.1223 88.5596 41.1223C88.5596 40.6684 88.5596 40.2486 88.5596 39.7947C88.1057 39.7947 87.6745 39.7947 87.2207 39.7947C87.2207 39.3295 87.2207 38.8983 87.2207 38.4557C86.7668 38.4557 86.3469 38.4557 85.8931 38.4557C85.8931 33.1 85.8931 27.7555 85.8931 22.3884C86.3243 22.3884 86.7554 22.3884 87.198 22.3884C87.198 20.5956 87.198 18.8368 87.198 17.0439C87.6519 17.0439 88.083 17.0439 88.5369 17.0439C88.5369 16.1362 88.5369 15.2625 88.5369 14.3661C88.9908 14.3661 89.4106 14.3661 89.8645 14.3661C89.8645 13.4696 89.8645 12.5959 89.8645 11.6995C90.3184 11.6995 90.7382 11.6995 91.1921 11.6995C91.1921 10.8031 91.1921 9.92937 91.1921 9.02161C91.6573 9.02161 92.0885 9.02161 92.5311 9.02161C92.5311 8.1252 92.5311 7.25148 92.5311 6.35506C92.9849 6.35506 93.4161 6.35506 93.87 6.35506C93.87 5.88984 93.87 5.45865 93.87 5.01612C94.3239 5.01612 94.7437 5.01612 95.1976 5.01612C95.1976 4.56224 95.1976 4.13105 95.1976 3.67717C95.6628 3.67717 96.094 3.67717 96.5366 3.67717C96.5366 3.22329 96.5366 2.80345 96.5366 2.34957C97.433 2.34957 98.3067 2.34957 99.2031 2.34957C99.2031 1.89569 99.2031 1.47585 99.2031 1.02197C100.996 1.02197 102.766 1.02197 104.559 1.02197C104.559 1.90704 104.559 2.79211 104.559 3.67717L104.57 3.66582C104.128 3.66582 103.685 3.66582 103.209 3.66582C103.209 3.2006 103.209 2.76941 103.209 2.34957C102.312 2.34957 101.438 2.34957 100.542 2.34957C100.542 2.79211 100.542 3.22329 100.542 3.68852C100.077 3.68852 99.6456 3.68852 99.2031 3.68852C99.2031 4.1424 99.2031 4.56224 99.2031 5.01612C98.7492 5.01612 98.318 5.01612 97.8755 5.01612C97.8755 5.47 97.8755 5.88984 97.8755 6.34372C97.4216 6.34372 96.9904 6.34372 96.5366 6.34372C96.5366 7.25148 96.5366 8.1252 96.5366 9.02161C96.0827 9.02161 95.6628 9.02161 95.209 9.02161C95.209 9.91802 95.209 10.7917 95.209 11.6995C94.7437 11.6995 94.3125 11.6995 93.87 11.6995C93.87 13.0498 93.87 14.3661 93.87 15.705C93.4161 15.705 92.9849 15.705 92.5311 15.705C92.5311 17.0553 92.5311 18.3829 92.5311 19.7218C92.0772 19.7218 91.6573 19.7218 91.2035 19.7218C91.2035 21.9572 91.2035 24.1699 91.2035 26.4166C90.7382 26.4166 90.3071 26.4166 89.8872 26.4166C89.8872 29.1058 89.8872 31.7497 89.8872 34.4389C90.3297 34.4389 90.7609 34.4389 91.2262 34.4389C91.2262 35.3467 91.2262 36.2204 91.2262 37.0941C93.019 37.0941 94.7778 37.0941 96.5706 37.0941C96.5706 36.6516 96.5706 36.2204 96.5706 35.7778C97.0358 35.7778 97.467 35.7778 97.8982 35.7665Z" fill="currentColor"></path>
  <path d="M108.599 35.7672C108.156 35.7672 107.714 35.7672 107.26 35.7672C107.26 36.2438 107.26 36.6636 107.26 37.0948C106.806 37.0948 106.375 37.0948 105.943 37.0948C105.943 33.9744 105.943 30.8767 105.943 27.7449C106.386 27.7449 106.817 27.7449 107.282 27.7449C107.282 24.6131 107.282 21.504 107.282 18.3723C107.736 18.3723 108.156 18.3723 108.61 18.3723C108.61 15.6944 108.61 13.0278 108.61 10.3386C109.075 10.3386 109.506 10.3386 109.949 10.3386C109.949 7.64935 109.949 4.99415 109.949 2.31626C110.403 2.31626 110.834 2.31626 111.254 2.31626C111.254 1.85103 111.254 1.41984 111.254 1C109.915 1 108.599 1 107.26 1C107.26 1.89641 107.26 2.77013 107.26 3.66655C106.352 3.66655 105.467 3.66655 104.582 3.66655L104.593 3.6552C104.593 8.44364 104.593 13.2207 104.593 18.0092C104.593 18.1226 104.593 18.2248 104.593 18.3723C104.151 18.3723 103.719 18.3723 103.266 18.3723C103.266 20.1651 103.266 21.9239 103.266 23.7167C102.812 23.7167 102.381 23.7167 101.927 23.7167C101.927 25.067 101.927 26.3946 101.927 27.7335C101.473 27.7335 101.053 27.7335 100.599 27.7335C100.599 28.63 100.599 29.5037 100.599 30.4114C100.134 30.4114 99.7026 30.4114 99.2601 30.4114C99.2601 31.3078 99.2601 32.1816 99.2601 33.078C98.8062 33.078 98.375 33.078 97.9098 33.078C97.9098 33.9971 97.9098 34.8822 97.9098 35.7672L97.8984 35.7559C98.341 35.7559 98.7835 35.7559 99.2601 35.7559C99.2601 35.2906 99.2601 34.8595 99.2601 34.4056C99.714 34.4056 100.134 34.4056 100.588 34.4056C100.588 33.5092 100.588 32.6354 100.588 31.7504C101.042 31.7504 101.461 31.7504 101.915 31.7504C101.915 35.3133 101.915 38.8649 101.915 42.4279C102.823 42.4279 103.697 42.4279 104.593 42.4279C104.593 41.9854 104.593 41.5542 104.593 41.1003C105.047 41.1003 105.478 41.1003 105.932 41.1003C105.932 40.6351 105.932 40.2039 105.932 39.7614C106.386 39.7614 106.806 39.7614 107.26 39.7614C107.26 39.3075 107.26 38.8763 107.26 38.4224C107.725 38.4224 108.156 38.4224 108.576 38.4224C108.587 37.526 108.587 36.6409 108.599 35.7672C108.599 35.7672 108.587 35.7672 108.599 35.7672Z" fill="currentColor"></path>
  <path d="M109.949 33.1007C109.506 33.1007 109.063 33.1007 108.598 33.1007C108.598 34.0085 108.598 34.8935 108.598 35.7673L108.587 35.7559C109.041 35.7559 109.483 35.7559 109.937 35.7559C109.937 34.8481 109.937 33.9744 109.949 33.1007Z" fill="currentColor"></path>
  <path d="M109.938 33.1007C110.38 33.1007 110.823 33.1007 111.265 33.1007C111.265 32.6354 111.265 32.2156 111.265 31.7844C110.823 31.7844 110.391 31.7844 109.949 31.7844C109.949 32.2383 109.949 32.6695 109.938 33.1007C109.938 33.1007 109.949 33.1007 109.938 33.1007Z" fill="currentColor"></path>
  <path fill-rule="evenodd" clip-rule="evenodd" d="M38.265 34.9118C39.3627 39.0448 41.6178 41.7852 44.6564 42.3908C47.6949 42.9965 51.137 41.3916 54.2627 38.1005C57.373 34.8255 60.0844 29.9599 61.6366 24.2779C63.1887 18.596 63.2782 13.2078 62.1859 9.09515C61.0883 4.96218 58.8332 2.22178 55.7946 1.61613C52.756 1.01048 49.314 2.61533 46.1883 5.90649C43.078 9.18143 40.3665 14.0471 38.8144 19.729C37.2623 25.411 37.1728 30.7992 38.265 34.9118ZM37.4972 35.0908C36.3706 30.8488 36.4725 25.3446 38.0482 19.5763C39.6239 13.808 42.3844 8.83365 45.5925 5.45573C48.7852 2.09403 52.508 0.233164 55.9832 0.925838C59.4584 1.61851 61.8326 4.69465 62.9538 8.9162C64.0804 13.1581 63.9784 18.6624 62.4027 24.4307C60.827 30.1989 58.0666 35.1733 54.8585 38.5512C51.6658 41.9129 47.943 43.7738 44.4678 43.0811C40.9926 42.3884 38.6184 39.3123 37.4972 35.0908Z" fill="currentColor"></path>
  <path d="M58.9221 23.8709C61.4275 14.699 59.2269 6.42022 54.0068 5.37975C48.7867 4.33927 42.5239 10.9311 40.0185 20.103C37.513 29.2749 39.7136 37.5537 44.9337 38.5941C50.1538 39.6346 56.4166 33.0428 58.9221 23.8709Z" stroke="currentColor" stroke-width="0.75" stroke-miterlimit="10" stroke-linejoin="round"></path>
  <path d="M56.383 23.3723C58.2373 16.5841 56.6102 10.4573 52.7487 9.68766C48.8873 8.91799 44.2538 13.7969 42.3995 20.5851C40.5452 27.3732 42.1723 33.5 46.0338 34.2697C49.8952 35.0394 54.5287 30.1604 56.383 23.3723Z" stroke="currentColor" stroke-width="0.75" stroke-miterlimit="10" stroke-linejoin="round"></path>
  <path d="M56.383 23.3723C58.2373 16.5841 56.6102 10.4573 52.7487 9.68766C48.8873 8.91799 44.2538 13.7969 42.3995 20.5851C40.5452 27.3732 42.1723 33.5 46.0338 34.2697C49.8952 35.0394 54.5287 30.1604 56.383 23.3723Z" stroke="currentColor" stroke-width="0.75" stroke-miterlimit="10" stroke-linejoin="round"></path>
  <path d="M56.4697 23.0202C57.7705 18.2586 56.6274 13.9605 53.9165 13.4202C51.2057 12.8798 47.9537 16.3019 46.653 21.0636C45.3523 25.8252 46.4954 30.1233 49.2062 30.6636C51.917 31.204 55.169 27.7819 56.4697 23.0202Z" stroke="currentColor" stroke-width="0.75" stroke-miterlimit="10" stroke-linejoin="round"></path>
  <path d="M56.5659 22.5938C57.2154 20.2159 56.6459 18.0697 55.2937 17.8002C53.9416 17.5307 52.3189 19.2399 51.6693 21.6178C51.0197 23.9957 51.5893 26.1418 52.9414 26.4113C54.2936 26.6808 55.9163 24.9717 56.5659 22.5938Z" stroke="currentColor" stroke-width="0.75" stroke-miterlimit="10" stroke-linejoin="round"></path>
  <path d="M43.9465 42.5966C43.9465 42.5966 43.6769 33.6056 54.9499 26.674" stroke="currentColor" stroke-width="0.75" stroke-miterlimit="10" stroke-linejoin="round"></path>
  <path d="M52.8224 1.30211C52.8224 1.30211 48.7112 10.1794 56.8939 17.6119" stroke="currentColor" stroke-width="0.75" stroke-miterlimit="10" stroke-linejoin="round"></path>
  <path d="M56.8458 18.773C47.6585 12.5704 47.2771 4.36555 47.2771 4.36555" stroke="currentColor" stroke-width="0.75" stroke-miterlimit="10" stroke-linejoin="round"></path>
  <path d="M37.4744 33.1069C37.4744 33.1069 43.228 27.7528 55.2725 25.2221" stroke="currentColor" stroke-width="0.75" stroke-miterlimit="10" stroke-linejoin="round"></path>
  <path d="M42.6548 9.90515C42.6548 9.90515 44.8211 15.8377 57.0008 19.0729" stroke="currentColor" stroke-width="0.75" stroke-miterlimit="10" stroke-linejoin="round"></path>
  <path d="M37.0051 26.0346C37.0051 26.0346 43.1286 24.055 56.476 23.1093" stroke="currentColor" stroke-width="0.75" stroke-miterlimit="10" stroke-linejoin="round"></path>
  <path d="M56.7855 21.6477C56.7855 21.6477 46.3535 19.8196 39.2007 17.1531" stroke="currentColor" stroke-width="0.75" stroke-miterlimit="10" stroke-linejoin="round"></path>
  <path d="M50.4439 41.6025C50.4439 41.6025 47.4007 31.7712 56.1938 23.6629" stroke="currentColor" stroke-width="0.75" stroke-miterlimit="10" stroke-linejoin="round"></path>
  <path d="M58.8491 2.67007C58.9295 2.73789 51.4874 11.6192 57.0698 19.5018" stroke="currentColor" stroke-width="0.75" stroke-miterlimit="10" stroke-linejoin="round"></path>
  <path d="M60.7113 28.2881C60.7113 28.2881 56.3464 26.7112 55.9648 24.723" stroke="currentColor" stroke-width="0.75" stroke-miterlimit="10" stroke-linejoin="round"></path>
  <path d="M63.3042 16.2671C63.3042 16.2671 58.3205 17.6024 57.0864 19.5437" stroke="currentColor" stroke-width="0.75" stroke-miterlimit="10" stroke-linejoin="round"></path>
  <path d="M55.9432 36.7334C55.9432 36.7334 50.3379 31.7434 55.3674 25.659C43.6424 31.3188 39.742 39.4212 39.742 39.4212" stroke="currentColor" stroke-width="0.75" stroke-miterlimit="10" stroke-linejoin="round"></path>
  <path d="M62.345 7.90552C62.345 7.90552 54.6306 12.6058 57.0121 19.0717" stroke="currentColor" stroke-width="0.75" stroke-miterlimit="10" stroke-linejoin="round"></path>
</svg>
